<svg xmlns="http://www.w3.org/2000/svg" viewBox="0 0 400 400">
  <!-- Fondo con formas blob azules/verdes -->
  <circle cx="300" cy="120" r="100" fill="#1e88e5" opacity="0.8"/>
  <circle cx="200" cy="250" r="120" fill="#00897b" opacity="0.8"/>
  <circle cx="320" cy="280" r="90" fill="#43a047" opacity="0.8"/>
  
  <!-- Libro abierto blanco -->
  <g transform="translate(120, 100)">
    <!-- Páginas -->
    <path d="M 0,20 Q 30,10 60,20 L 60,100 Q 30,90 0,100 Z" fill="white" stroke="#0d47a1" stroke-width="3"/>
    <path d="M 60,20 Q 90,10 120,20 L 120,100 Q 90,90 60,100 Z" fill="white" stroke="#0d47a1" stroke-width="3"/>
    
    <!-- Líneas de texto -->
    <line x1="10" y1="35" x2="50" y2="35" stroke="#1e88e5" stroke-width="2"/>
    <line x1="10" y1="50" x2="50" y2="50" stroke="#1e88e5" stroke-width="2"/>
    <line x1="10" y1="65" x2="40" y2="65" stroke="#1e88e5" stroke-width="2"/>
    
    <line x1="70" y1="35" x2="110" y2="35" stroke="#00897b" stroke-width="2"/>
    <line x1="70" y1="50" x2="110" y2="50" stroke="#00897b" stroke-width="2"/>
    <line x1="70" y1="65" x2="100" y2="65" stroke="#00897b" stroke-width="2"/>
  </g>
  
  <!-- Carita sonriente -->
  <circle cx="340" cy="110" r="25" fill="white" stroke="#0d47a1" stroke-width="3"/>
  <circle cx="332" cy="105" r="4" fill="#0d47a1"/>
  <circle cx="348" cy="105" r="4" fill="#0d47a1"/>
  <path d="M 330,115 Q 340,122 350,115" stroke="#0d47a1" stroke-width="3" fill="none"/>
  
  <!-- Texto ComeniusAI -->
  <text x="200" y="330" font-family="Arial, sans-serif" font-size="48" font-weight="bold" fill="white" text-anchor="middle">ComeniusAI</text>
</svg>
